<?xml version="1.0" encoding="utf-8"?>
<!-- Generator: Adobe Illustrator 27.5.0, SVG Export Plug-In . SVG Version: 6.00 Build 0)  -->
<svg version="1.1" id="Слой_1" xmlns="http://www.w3.org/2000/svg" xmlns:xlink="http://www.w3.org/1999/xlink" x="0px" y="0px"
	 viewBox="0 0 3003.67 2000" style="enable-background:new 0 0 3003.67 2000;" xml:space="preserve">
<g>
	<rect style="fill:#F7F7F7;" width="3003.67" height="2000"/>
	<g>
		<g>
			<linearGradient id="SVGID_1_" gradientUnits="userSpaceOnUse" x1="1803.3573" y1="233.4181" x2="1119.8141" y2="1094.1765">
				<stop  offset="0" style="stop-color:#40D5E6"/>
				<stop  offset="1" style="stop-color:#5577FF"/>
			</linearGradient>
			<polygon style="fill:url(#SVGID_1_);" points="2441.292,438.734 1462.896,1417.131 1414.752,1465.275 1311.968,1568.059 
				1073.612,1806.413 337.664,1070.465 516.693,891.477 735.807,1110.593 946.398,1321.182 1073.612,1448.396 1200.828,1321.182 
				1976.018,545.95 2262.262,259.706 			"/>
		</g>
		<g>
			
				<linearGradient id="SVGID_00000051368165274880625880000015161761744246627722_" gradientUnits="userSpaceOnUse" x1="1387.4316" y1="1568.0586" x2="1387.4316" y2="1244.4307">
				<stop  offset="0" style="stop-color:#40D5E6"/>
				<stop  offset="1" style="stop-color:#5577FF"/>
			</linearGradient>
			<polygon style="fill:url(#SVGID_00000051368165274880625880000015161761744246627722_);" points="1462.896,1244.431 
				1462.896,1417.131 1414.752,1465.275 1311.968,1568.059 1311.968,1244.431 			"/>
		</g>
		<g>
			
				<linearGradient id="SVGID_00000167391881323105483920000003870091786704673981_" gradientUnits="userSpaceOnUse" x1="1387.4312" y1="1642.1635" x2="1387.4312" y2="587.223">
				<stop  offset="0" style="stop-color:#40D5E6"/>
				<stop  offset="1" style="stop-color:#5577FF"/>
			</linearGradient>
			<path style="fill:url(#SVGID_00000167391881323105483920000003870091786704673981_);" d="M2039.056,612.152V840.97
				l-624.304,624.305H802.094c-36.624,0-66.287-29.705-66.287-66.289V612.152c0-36.625,29.663-66.287,66.287-66.287h1170.675
				c1.098,0,2.152,0.044,3.249,0.085C2011.123,547.637,2039.056,576.625,2039.056,612.152z"/>
		</g>
		<g>
			<polygon style="fill:#FFFFFF;" points="1988.043,448.018 1988.043,891.982 1558.845,1321.182 786.819,1321.182 786.819,448.018 
							"/>
		</g>
		<g>
			
				<rect x="786.829" y="448.007" transform="matrix(-1 -1.224647e-16 1.224647e-16 -1 2774.8613 1001.4775)" style="fill:#5D96FF;" width="1201.203" height="105.464"/>
		</g>
		<path style="fill:#F5F7FF;" d="M993.999,520.665H851.325c-7.912,0-14.326-6.414-14.326-14.326v-11.2
			c0-7.912,6.414-14.326,14.326-14.326h142.674c7.911,0,14.325,6.414,14.325,14.326v11.2
			C1008.324,514.251,1001.91,520.665,993.999,520.665z"/>
		<g>
			<g>
				<g>
					<path style="fill:#323657;" d="M2040.028,1382.558c0.018-0.007,0.037-0.01,0.061-0.005
						C2039.833,1382.665,2039.796,1382.675,2040.028,1382.558z"/>
				</g>
			</g>
		</g>
		<g>
			<g>
				<g>
					<g>
						<polygon style="fill:#D6D6D6;" points="2163.127,1109.442 2283.041,1042.377 2241.825,1039.658 						"/>
					</g>
				</g>
			</g>
			<g>
				<g>
					<g>
						<polygon style="fill:#E8E8E8;" points="2163.127,1109.442 2200.028,1050.089 2230.991,1049.265 						"/>
					</g>
				</g>
			</g>
			<g>
				<g>
					<g>
						<polygon style="fill:#C2C2C2;" points="2255.465,1057.799 2257.866,1072.911 2163.127,1109.442 						"/>
					</g>
				</g>
			</g>
		</g>
		<g>
			<path style="fill:#E0E0E0;" d="M590.831,1014.367c-0.391-4.71-0.758-9.469-1.09-14.144l3.274-0.233
				c0.331,4.664,0.696,9.409,1.087,14.105L590.831,1014.367z M2288.628,999.441l-1.867-2.7c0.058-0.04,5.802-4.038,13.5-11.196
				l2.235,2.404C2294.609,995.283,2288.869,999.274,2288.628,999.441z M588.618,982.51c-0.33-5.907-0.616-11.872-0.851-17.729
				l3.28-0.131c0.233,5.839,0.519,11.787,0.847,17.677L588.618,982.51z M2314.967,975.093l-2.473-2.159
				c3.93-4.5,7.554-9.159,10.771-13.844l2.706,1.858C2322.682,965.737,2318.979,970.496,2314.967,975.093z M587.201,947.04
				c-0.142-5.914-0.234-11.886-0.276-17.748l3.282-0.023c0.042,5.844,0.135,11.797,0.274,17.693L587.201,947.04z M2335.126,945.515
				l-2.934-1.472c2.676-5.333,4.885-10.768,6.566-16.157l3.134,0.978C2340.157,934.422,2337.882,940.024,2335.126,945.515z
				 M590.231,911.577l-3.281-0.033c0.059-5.919,0.172-11.891,0.334-17.748l3.281,0.091
				C590.403,899.726,590.291,905.677,590.231,911.577z M2345.656,911.266l-3.261-0.378c0.389-3.35,0.586-6.748,0.586-10.098
				c0-2.41-0.102-4.852-0.303-7.259l3.27-0.274c0.21,2.497,0.316,5.032,0.316,7.533
				C2346.265,904.266,2346.06,907.791,2345.656,911.266z M2339.547,876.438c-1.534-5.423-3.615-10.903-6.183-16.287l2.963-1.413
				c2.646,5.551,4.793,11.205,6.379,16.806L2339.547,876.438z M591.216,876.207l-3.279-0.151c0.272-5.912,0.603-11.875,0.982-17.722
				l3.275,0.212C591.816,864.374,591.487,870.316,591.216,876.207z M2324.72,844.965c-3.098-4.676-6.635-9.392-10.516-14.02
				l2.515-2.109c3.96,4.722,7.572,9.538,10.737,14.316L2324.72,844.965z M593.508,840.91l-3.271-0.275
				c0.497-5.898,1.058-11.842,1.666-17.67l3.265,0.341C594.562,829.112,594.004,835.035,593.508,840.91z M2302.296,818.031
				c-0.471-0.468-0.945-0.936-1.426-1.405c-3.656-3.566-7.582-6.962-11.67-10.09l1.996-2.606c4.19,3.208,8.217,6.69,11.967,10.349
				c0.488,0.476,0.97,0.951,1.447,1.425L2302.296,818.031z M597.183,805.739l-3.257-0.408c0.734-5.87,1.538-11.788,2.389-17.587
				l3.247,0.476C598.715,793.998,597.915,799.892,597.183,805.739z M2274.7,796.859c-4.869-2.827-10.117-5.487-15.598-7.907
				l1.326-3.003c5.59,2.469,10.945,5.184,15.919,8.071L2274.7,796.859z M2242.743,782.607c-5.305-1.804-10.817-3.467-16.854-5.085
				l0.85-3.171c6.106,1.637,11.687,3.32,17.06,5.148L2242.743,782.607z M2208.736,773.37c-5.219-1.147-10.888-2.303-17.329-3.535
				l0.617-3.225c6.471,1.238,12.168,2.4,17.416,3.554L2208.736,773.37z M602.315,770.758l-3.237-0.546
				c0.985-5.835,2.045-11.713,3.148-17.468l3.224,0.617C604.351,759.094,603.296,764.947,602.315,770.758z M2173.985,766.63
				l-5.291-0.946c-4.036-0.722-8.094-1.447-12.168-2.19l0.588-3.229c4.07,0.742,8.125,1.466,12.158,2.188l5.292,0.947
				L2173.985,766.63z M2139.078,760.19c-6.267-1.245-11.954-2.452-17.386-3.689l0.729-3.2c5.401,1.231,11.06,2.432,17.296,3.669
				L2139.078,760.19z M2104.43,752.222c-5.896-1.592-11.636-3.293-17.061-5.055l1.015-3.122c5.372,1.747,11.059,3.431,16.902,5.008
				L2104.43,752.222z M2070.609,741.17c-5.602-2.202-11.099-4.581-16.341-7.07l1.408-2.965c5.174,2.457,10.602,4.806,16.133,6.98
				L2070.609,741.17z M608.977,736.039l-3.209-0.692c1.248-5.785,2.574-11.608,3.944-17.308l3.191,0.767
				C611.54,724.481,610.22,730.278,608.977,736.039z M2038.48,725.867c-5.162-2.947-10.243-6.12-15.102-9.43l1.848-2.713
				c4.787,3.262,9.794,6.388,14.882,9.292L2038.48,725.867z M2009.083,705.834c-4.572-3.686-9.08-7.625-13.399-11.708l2.255-2.385
				c4.257,4.024,8.699,7.906,13.204,11.538L2009.083,705.834z M617.238,701.672l-3.172-0.844c1.519-5.712,3.124-11.466,4.771-17.1
				l3.15,0.922C620.348,690.258,618.75,695.984,617.238,701.672z M1983.234,681.419c-3.919-4.312-7.782-8.881-11.483-13.579
				l2.578-2.03c3.652,4.637,7.466,9.146,11.333,13.401L1983.234,681.419z M627.159,667.752l-3.127-1
				c1.802-5.63,3.694-11.296,5.626-16.84l3.1,1.08C630.835,656.509,628.951,662.148,627.159,667.752z M1961.218,653.519
				c-3.286-4.78-6.525-9.806-9.625-14.938l2.809-1.697c3.068,5.077,6.271,10.049,9.521,14.776L1961.218,653.519z M638.79,634.384
				l-3.07-1.161c2.09-5.525,4.277-11.084,6.502-16.523l3.038,1.242C643.046,623.355,640.869,628.886,638.79,634.384z
				 M1942.82,623.133c-2.728-5.107-5.413-10.445-7.983-15.866l2.966-1.407c2.548,5.375,5.21,10.666,7.913,15.727L1942.82,623.133z
				 M652.17,601.682l-3.003-1.325c2.385-5.406,4.872-10.838,7.391-16.146l2.966,1.408
				C657.017,590.898,654.543,596.303,652.17,601.682z M1927.579,591.06c-2.253-5.328-4.473-10.874-6.596-16.483l3.07-1.161
				c2.108,5.569,4.312,11.076,6.549,16.366L1927.579,591.06z M667.32,569.766l-2.925-1.489c2.678-5.258,5.465-10.542,8.284-15.709
				l2.881,1.572C672.757,559.279,669.983,564.537,667.32,569.766z M1914.991,557.869c-1.861-5.478-3.692-11.163-5.443-16.892
				l3.14-0.959c1.741,5.698,3.562,11.35,5.411,16.795L1914.991,557.869z M684.244,538.756l-2.835-1.654
				c2.976-5.1,6.062-10.216,9.172-15.208l2.785,1.735C690.273,528.594,687.204,533.684,684.244,538.756z M1904.604,523.925
				c-1.537-5.584-3.048-11.366-4.491-17.181l3.185-0.79c1.437,5.788,2.941,11.542,4.471,17.101L1904.604,523.925z M702.925,508.772
				l-2.734-1.815c3.26-4.91,6.639-9.838,10.042-14.649l2.68,1.895C709.527,498.988,706.167,503.89,702.925,508.772z
				 M1895.831,489.611c-1.558-5.58-3.367-11.197-5.375-16.695l3.083-1.125c2.036,5.577,3.871,11.276,5.453,16.937L1895.831,489.611z
				 M723.323,479.932l-2.623-1.974c3.546-4.713,7.208-9.435,10.886-14.035l2.564,2.05
				C730.492,470.547,726.85,475.244,723.323,479.932z M1883.808,456.648c-2.387-5.271-5.02-10.568-7.826-15.746l2.886-1.564
				c2.844,5.246,5.513,10.614,7.931,15.956L1883.808,456.648z M745.383,452.339l-2.503-2.124c3.814-4.494,7.748-8.993,11.692-13.372
				l2.439,2.196C753.089,443.395,749.176,447.869,745.383,452.339z M769.025,426.086l-2.374-2.267
				c4.069-4.26,8.259-8.521,12.454-12.665l2.307,2.335C777.239,417.611,773.072,421.849,769.025,426.086z M1867.073,425.729
				c-3.092-4.885-6.419-9.785-9.889-14.564l2.656-1.929c3.51,4.835,6.877,9.793,10.006,14.737L1867.073,425.729z M794.158,401.254
				l-2.238-2.4c4.304-4.013,8.733-8.026,13.164-11.927l2.169,2.463C802.845,393.271,798.439,397.262,794.158,401.254z
				 M1846.415,397.228c-3.668-4.47-7.556-8.946-11.556-13.305l2.418-2.219c4.041,4.403,7.969,8.925,11.675,13.442L1846.415,397.228z
				 M820.68,377.904l-2.099-2.523c4.523-3.76,9.172-7.516,13.817-11.164l2.026,2.582
				C829.804,370.428,825.179,374.164,820.68,377.904z M1822.604,371.245c-4.123-4.054-8.455-8.112-12.873-12.059l2.187-2.448
				c4.458,3.982,8.827,8.076,12.988,12.166L1822.604,371.245z M848.428,356.115l-1.955-2.636c4.709-3.492,9.544-6.976,14.371-10.356
				l1.882,2.688C857.924,349.173,853.113,352.64,848.428,356.115z M1796.31,347.728c-4.491-3.665-9.17-7.323-13.908-10.872
				l1.968-2.627c4.774,3.576,9.489,7.263,14.016,10.956L1796.31,347.728z M877.306,335.89l-1.81-2.737
				c4.9-3.239,9.92-6.463,14.92-9.582l1.737,2.785C887.177,329.459,882.183,332.667,877.306,335.89z M1768.063,326.548
				c-4.771-3.292-9.724-6.577-14.721-9.763l1.765-2.768c5.03,3.207,10.017,6.514,14.82,9.829L1768.063,326.548z M907.252,317.207
				l-1.664-2.828c5.052-2.973,10.235-5.934,15.409-8.802l1.591,2.871C917.439,311.302,912.279,314.249,907.252,317.207z
				 M1738.282,307.547c-4.997-2.95-10.166-5.889-15.362-8.733l1.576-2.879c5.228,2.862,10.427,5.818,15.455,8.787L1738.282,307.547z
				 M938.148,300.075l-1.52-2.909c5.213-2.722,10.543-5.421,15.841-8.023l1.446,2.946
				C948.642,294.679,943.337,297.366,938.148,300.075z M1707.286,290.567c-5.177-2.632-10.519-5.248-15.876-7.778l1.401-2.968
				c5.387,2.544,10.757,5.174,15.962,7.82L1707.286,290.567z M969.878,284.489l-1.375-2.98c5.334-2.462,10.79-4.9,16.216-7.25
				l1.305,3.012C980.621,279.61,975.189,282.038,969.878,284.489z M1675.318,275.465c-5.331-2.337-10.811-4.655-16.288-6.886
				l1.239-3.04c5.503,2.243,11.01,4.572,16.367,6.92L1675.318,275.465z M1002.337,270.435l-1.233-3.041
				c5.445-2.208,11.01-4.391,16.54-6.486l1.163,3.069C1013.3,266.064,1007.759,268.236,1002.337,270.435z M1642.569,262.117
				c-5.462-2.065-11.054-4.101-16.621-6.052l1.086-3.098c5.592,1.959,11.209,4.005,16.695,6.078L1642.569,262.117z
				 M1035.421,257.894l-1.094-3.095c5.549-1.962,11.206-3.892,16.816-5.735l1.025,3.118
				C1046.581,254.018,1040.947,255.94,1035.421,257.894z M1609.187,250.415c-5.561-1.802-11.243-3.572-16.89-5.261l0.94-3.144
				c5.67,1.696,11.377,3.474,16.961,5.283L1609.187,250.415z M1069.037,246.838l-0.957-3.14c5.628-1.716,11.363-3.397,17.047-4.998
				l0.89,3.159C1080.356,243.454,1074.644,245.129,1069.037,246.838z M1575.293,240.273c-5.643-1.552-11.398-3.069-17.108-4.509
				l0.803-3.182c5.732,1.444,11.512,2.968,17.177,4.526L1575.293,240.273z M1103.098,237.241l-0.823-3.178
				c5.679-1.472,11.479-2.911,17.237-4.277l0.758,3.194C1114.532,234.341,1108.755,235.774,1103.098,237.241z M1540.984,231.619
				c-5.711-1.313-11.525-2.587-17.284-3.788l0.67-3.213c5.78,1.205,11.617,2.484,17.35,3.802L1540.984,231.619z M1137.522,229.073
				l-0.691-3.207c5.752-1.242,11.603-2.443,17.391-3.571l0.628,3.223C1149.083,226.64,1143.254,227.837,1137.522,229.073z
				 M1506.343,224.395c-5.755-1.078-11.617-2.118-17.424-3.089l0.542-3.237c5.827,0.975,11.711,2.018,17.487,3.1L1506.343,224.395z
				 M1172.24,222.307l-0.564-3.233c5.776-1.007,11.667-1.976,17.511-2.877l0.5,3.244
				C1183.865,220.338,1177.995,221.303,1172.24,222.307z M1471.438,218.558c-5.797-0.854-11.695-1.665-17.531-2.411l0.416-3.255
				c5.857,0.748,11.776,1.561,17.594,2.418L1471.438,218.558z M1207.183,216.912l-0.438-3.253
				c5.831-0.785,11.751-1.524,17.599-2.198l0.375,3.26C1218.893,215.393,1212.992,216.13,1207.183,216.912z M1436.333,214.071
				c-5.84-0.634-11.766-1.221-17.61-1.744l0.293-3.27c5.865,0.525,11.811,1.114,17.671,1.75L1436.333,214.071z M1242.287,212.866
				l-0.313-3.267c5.855-0.563,11.796-1.078,17.656-1.53l0.253,3.272C1254.043,211.792,1248.123,212.305,1242.287,212.866z
				 M1401.083,210.912c-5.842-0.414-11.785-0.779-17.664-1.086l0.172-3.279c5.898,0.309,11.862,0.676,17.724,1.091L1401.083,210.912
				z M1277.498,210.148l-0.192-3.277c5.86-0.342,11.812-0.635,17.689-0.869l0.131,3.28
				C1289.269,209.514,1283.337,209.806,1277.498,210.148z M1365.738,209.064c-5.859-0.197-11.802-0.344-17.664-0.433l0.05-3.282
				c5.883,0.091,11.846,0.236,17.726,0.435L1365.738,209.064z M1312.761,208.74l-0.071-3.282c5.855-0.126,11.809-0.199,17.694-0.217
				l0.011,3.282C1324.528,208.542,1318.595,208.614,1312.761,208.74z"/>
		</g>
		<g>
			<g>
				<g>
					<path style="fill:#F0F0F0;" d="M2532.834,538.916c-41.06-19.427-88.538-9.099-118.085,22.28
						c-7.153,7.597-13.255,16.426-17.962,26.373c-14.252,30.126-12.49,63.712,1.854,91.129c9.94,19.001,25.922,35.041,46.803,44.919
						c2.075,0.983,4.175,1.893,6.281,2.726c9.555,3.768,19.377,5.997,29.183,6.784c41.13,3.321,81.892-18.656,100.586-58.163
						C2605.624,623.958,2583.839,563.05,2532.834,538.916z M2558.378,664.027c-14.014,29.622-44.574,46.096-75.409,43.61
						c-7.35-0.593-14.717-2.262-21.879-5.091c-1.581-0.624-3.154-1.305-4.713-2.042c-15.653-7.406-27.634-19.433-35.086-33.677
						c-10.757-20.558-12.081-45.737-1.392-68.322c3.526-7.456,8.104-14.077,13.464-19.775
						c22.147-23.526,57.749-31.271,88.534-16.706C2560.14,580.12,2576.471,625.786,2558.378,664.027z"/>
				</g>
			</g>
			<g>
				<g>
					<path style="fill:#2273B5;" d="M2421.291,666.828l-22.649,11.87c-14.345-27.417-16.106-61.003-1.854-91.129
						c4.707-9.947,10.809-18.776,17.962-26.373l18.614,17.535c-5.36,5.698-9.938,12.318-13.464,19.775
						C2409.21,621.091,2410.534,646.269,2421.291,666.828z"/>
				</g>
			</g>
			<g>
				<g>
					<path style="fill:#4DAFFF;" d="M2461.09,702.546l-9.364,23.797c-2.106-0.832-4.206-1.743-6.281-2.726
						c-20.881-9.878-36.862-25.918-46.803-44.919l22.649-11.87c7.452,14.244,19.433,26.271,35.086,33.677
						C2457.936,701.241,2459.509,701.922,2461.09,702.546z"/>
				</g>
			</g>
			<g>
				<g>
					<path style="fill:#4DAFFF;" d="M2480.908,733.127c-9.806-0.787-19.628-3.016-29.183-6.784l9.364-23.797
						c7.162,2.829,14.529,4.498,21.879,5.091L2480.908,733.127z"/>
				</g>
			</g>
		</g>
		<g>
			<polygon style="fill:#4DAFFF;" points="2457.75,800.465 2266.972,800.465 2266.972,796.674 2453.958,796.674 2453.958,715.852 
				2457.75,715.852 			"/>
		</g>
		<g>
			<rect x="2266.972" y="757.209" style="fill:#E0E0E0;" width="100.421" height="22.751"/>
		</g>
		<g>
			<g>
				<rect x="297.65" y="425.274" style="fill:#E0E0E0;" width="19.931" height="132.169"/>
			</g>
			<g>
				<rect x="347.14" y="452.129" style="fill:#E0E0E0;" width="19.931" height="105.313"/>
			</g>
			<g>
				<rect x="396.629" y="432.368" style="fill:#E0E0E0;" width="19.93" height="125.075"/>
			</g>
			<g>
				<rect x="446.117" y="471.385" style="fill:#E0E0E0;" width="19.931" height="86.058"/>
			</g>
			<g>
				<rect x="495.606" y="436.421" style="fill:#E0E0E0;" width="19.93" height="121.021"/>
			</g>
			<g>
				<rect x="545.095" y="418.18" style="fill:#E0E0E0;" width="19.931" height="139.263"/>
			</g>
			<g>
				<rect x="594.584" y="410.579" style="fill:#E0E0E0;" width="19.931" height="146.864"/>
			</g>
			<g>
				<rect x="297.65" y="474.523" style="fill:#5D96FF;" width="19.931" height="82.92"/>
			</g>
			<g>
				<rect x="347.14" y="491.372" style="fill:#5D96FF;" width="19.931" height="66.071"/>
			</g>
			<g>
				<rect x="396.629" y="478.974" style="fill:#5D96FF;" width="19.93" height="78.469"/>
			</g>
			<g>
				<rect x="446.117" y="503.452" style="fill:#5D96FF;" width="19.931" height="53.991"/>
			</g>
			<g>
				<rect x="495.606" y="481.518" style="fill:#5D96FF;" width="19.93" height="75.925"/>
			</g>
			<g>
				<rect x="545.095" y="470.072" style="fill:#5D96FF;" width="19.931" height="87.371"/>
			</g>
			<g>
				<rect x="594.584" y="465.304" style="fill:#5D96FF;" width="19.931" height="92.139"/>
			</g>
		</g>
		<rect x="631.212" y="219.073" style="fill:#D9D9D9;" width="115.194" height="16.637"/>
		<rect x="631.212" y="249.827" style="fill:#D9D9D9;" width="163.4" height="16.637"/>
		<g>
			<g>
				<g>
					<path style="fill:#F0F0F0;" d="M2701.475,436.81c-11.595-32.419-42.577-52.33-75.232-51.349
						c-7.905,0.238-15.909,1.7-23.763,4.508c-23.785,8.508-40.842,27.454-47.849,49.837c-4.856,15.512-4.887,32.675,1.01,49.161
						c0.585,1.639,1.223,3.252,1.906,4.828c3.102,7.14,7.171,13.599,12.005,19.277c20.264,23.825,53.891,33.893,85.085,22.738
						C2694.908,521.405,2715.877,477.083,2701.475,436.81z M2648.109,517.558c-23.388,8.365-48.598,0.816-63.792-17.044
						c-3.621-4.257-6.675-9.1-8.997-14.454c-0.513-1.183-0.991-2.391-1.433-3.621c-4.42-12.359-4.395-25.227-0.755-36.854
						c5.253-16.784,18.039-30.989,35.873-37.365c5.886-2.106,11.888-3.201,17.814-3.382c24.479-0.739,47.713,14.191,56.407,38.498
						C2694.025,473.529,2678.303,506.759,2648.109,517.558z"/>
				</g>
			</g>
			<g>
				<g>
					<path style="fill:#1A598C;" d="M2573.133,445.584l-18.502-5.778c7.007-22.383,24.063-41.329,47.849-49.837
						c7.854-2.809,15.857-4.271,23.763-4.508l0.578,19.376c-5.927,0.181-11.929,1.276-17.814,3.382
						C2591.172,414.595,2578.386,428.8,2573.133,445.584z"/>
				</g>
			</g>
			<g>
				<g>
					<path style="fill:#2273B5;" d="M2575.32,486.06l-17.773,7.735c-0.684-1.575-1.321-3.188-1.906-4.828
						c-5.896-16.486-5.866-33.648-1.01-49.161l18.502,5.778c-3.64,11.628-3.665,24.496,0.755,36.854
						C2574.329,483.669,2574.808,484.877,2575.32,486.06z"/>
				</g>
			</g>
			<g>
				<g>
					<path style="fill:#4DAFFF;" d="M2569.552,513.071c-4.834-5.678-8.903-12.137-12.005-19.277l17.773-7.735
						c2.322,5.354,5.376,10.197,8.997,14.454L2569.552,513.071z"/>
				</g>
			</g>
		</g>
		<g>
			<g>
				<rect x="1009.973" y="695.927" style="fill:#E8E8E8;" width="605.435" height="21.087"/>
				<rect x="1009.973" y="764.644" style="fill:#E8E8E8;" width="605.435" height="21.087"/>
				<rect x="1009.973" y="830.932" style="fill:#E8E8E8;" width="605.435" height="21.087"/>
				<rect x="1009.973" y="899.648" style="fill:#E8E8E8;" width="605.435" height="21.087"/>
				<rect x="1009.973" y="976.845" style="fill:#E8E8E8;" width="605.435" height="21.087"/>
				<rect x="1009.973" y="1045.561" style="fill:#E8E8E8;" width="605.435" height="21.088"/>
				<rect x="1009.973" y="1111.85" style="fill:#E8E8E8;" width="605.435" height="21.087"/>
				<rect x="1009.973" y="1180.565" style="fill:#E8E8E8;" width="605.435" height="21.087"/>
			</g>
			<path style="fill:#4CA1F4;" d="M888.188,763.757h51.801c9.419,0,17.056-7.636,17.056-17.056v-51.8
				c0-9.419-7.637-17.056-17.056-17.056h-51.801c-9.42,0-17.056,7.636-17.056,17.056v51.8
				C871.132,756.121,878.768,763.757,888.188,763.757z"/>
			<g>
				<path style="fill:#4CA1F4;" d="M888.188,1033.063h51.801c9.419,0,17.056-7.636,17.056-17.056v-51.801
					c0-9.419-7.637-17.056-17.056-17.056h-51.801c-9.42,0-17.056,7.636-17.056,17.056v51.801
					C871.132,1025.427,878.768,1033.063,888.188,1033.063z"/>
				<g>
					<g>
						<g>
							<g>
								<g>
									<path style="fill:#FFFFFF;" d="M911.156,1010.87l-23.841-20.714c-1.955-1.699-2.162-4.661-0.464-6.615
										c1.698-1.955,4.66-2.162,6.615-0.464l16.858,14.648l23.963-26.816c1.726-1.932,4.689-2.098,6.621-0.372
										c1.931,1.726,2.098,4.69,0.372,6.621L911.156,1010.87z"/>
								</g>
							</g>
						</g>
					</g>
				</g>
			</g>
			<g>
				<path style="fill:#4CA1F4;" d="M888.188,897.881h51.801c9.419,0,17.056-7.636,17.056-17.056v-51.801
					c0-9.419-7.637-17.056-17.056-17.056h-51.801c-9.42,0-17.056,7.636-17.056,17.056v51.801
					C871.132,890.245,878.768,897.881,888.188,897.881z"/>
				<g>
					<g>
						<g>
							<g>
								<g>
									<path style="fill:#FFFFFF;" d="M911.156,875.688l-23.841-20.714c-1.955-1.699-2.162-4.661-0.464-6.616
										c1.698-1.955,4.66-2.162,6.615-0.464l16.858,14.649l23.963-26.816c1.726-1.931,4.689-2.098,6.621-0.372
										c1.931,1.726,2.098,4.69,0.372,6.621L911.156,875.688z"/>
								</g>
							</g>
						</g>
					</g>
				</g>
				<path style="fill:#4CA1F4;" d="M888.188,1168.244h51.801c9.419,0,17.056-7.636,17.056-17.056v-51.801
					c0-9.419-7.637-17.056-17.056-17.056h-51.801c-9.42,0-17.056,7.637-17.056,17.056v51.801
					C871.132,1160.608,878.768,1168.244,888.188,1168.244z"/>
				<g>
					<g>
						<g>
							<g>
								<g>
									<path style="fill:#FFFFFF;" d="M911.156,1146.052l-23.841-20.714c-1.955-1.699-2.162-4.661-0.464-6.616
										c1.698-1.954,4.66-2.162,6.615-0.464l16.858,14.648l23.963-26.816c1.726-1.932,4.689-2.098,6.621-0.373
										c1.931,1.727,2.098,4.69,0.372,6.622L911.156,1146.052z"/>
								</g>
							</g>
						</g>
					</g>
				</g>
			</g>
			<g>
				<path style="fill:#FFFFFF;" d="M904.06,727.356c0-1.114,0.073-2.181,0.219-3.198c0.146-1.018,0.424-1.998,0.836-2.943
					c0.411-0.944,1.005-1.828,1.78-2.652c0.774-0.823,1.792-1.574,3.053-2.253c0.629-0.339,1.465-0.787,2.507-1.345
					c1.042-0.557,2.06-1.199,3.053-1.926c0.993-0.728,1.854-1.563,2.58-2.508c0.727-0.945,1.091-1.999,1.091-3.162
					c0-1.599-0.582-2.846-1.744-3.742c-1.163-0.896-2.496-1.345-3.998-1.345c-0.97,0-1.829,0.182-2.58,0.545
					c-0.752,0.363-1.43,0.8-2.035,1.309c-0.606,0.509-1.126,1.078-1.563,1.708c-0.435,0.63-0.824,1.188-1.163,1.671l-7.485-5.232
					c1.259-2.955,3.258-5.257,5.996-6.905c2.736-1.646,5.825-2.471,9.267-2.471c1.841,0,3.682,0.267,5.523,0.8
					c1.841,0.533,3.488,1.381,4.942,2.544c1.453,1.162,2.641,2.665,3.562,4.506c0.92,1.842,1.381,4.07,1.381,6.687
					c0,2.762-0.57,5.076-1.708,6.94c-1.14,1.866-2.823,3.502-5.052,4.906c-1.018,0.679-2.047,1.284-3.089,1.817
					c-1.042,0.533-1.998,1.09-2.871,1.671c-0.872,0.582-1.574,1.236-2.107,1.963c-0.533,0.727-0.8,1.599-0.8,2.616H904.06z
					 M904.278,745.162V734.26h9.521v10.902H904.278z"/>
			</g>
		</g>
		<g>
			<path style="fill:#252840;" d="M1147.008,660.574c0,0-7.93,6.951-15.05,17.631c-7.121,10.68-26.021,11.247-26.831,25.827
				c-0.81,14.579,25.698,15.028,39.615,10.282s16.021-18.987,24.437-22.547c8.415-3.56,12.784-6.442,12.138-13.392
				c-0.647-6.951-5.305-18.233-5.305-18.233s-5.228,1.669-8.303,2.009C1164.634,662.488,1154.29,662.608,1147.008,660.574z"/>
			<path style="fill:#FFBF55;" d="M1242.401,265.568c0,0-5.334,31.72-9.632,52.671c0,0,0,0,0,0.002
				c-1.745,8.496-3.318,15.222-4.295,17.339c-1.229,2.665-11.242,13.415-23.494,26.03c-21.501,22.133-49.906,50.004-49.906,50.004
				l-11.104-21.079c0,0,25.231-29.578,42.335-49.315c7.918-9.134,14.093-16.158,15.224-17.17c3.576-3.2,7.727-34.72,13.561-60.692
				c5.835-25.973,17.526-40.325,17.526-40.325L1242.401,265.568z"/>
			<path style="fill:#EEA886;" d="M1204.98,361.611c-21.501,22.133-49.906,50.004-49.906,50.004l-11.104-21.079
				c0,0,25.231-29.578,42.335-49.315C1191.549,343.793,1201.173,349.926,1204.98,361.611z"/>
			<g>
				<path style="fill:#252840;" d="M1342.86,651.888c0,0,7.301,8.075,11.619,12.969c4.319,4.895,20.856,13.644,20.945,28.179
					c0.098,15.763-12.2,14.382-23.141,13.807c-10.94-0.576-19.831-8.135-24.438-17.06s-16.862-11.271-17.727-18.468
					c-0.863-7.198,5.682-20.154,5.682-20.154L1342.86,651.888z"/>
			</g>
			<path style="fill:#5F8CC9;" d="M1317.213,637.744l-1.411,13.418c0,0,22.835,9.952,27.059,0.727l-0.98-11.949L1317.213,637.744z"
				/>
			<path style="fill:#5F8CC9;" d="M1148.253,650.861l-1.245,9.712c0,0,13.801,4.876,29.004-0.433l0.31-8.636L1148.253,650.861z"/>
			<path style="fill:#FFBF55;" d="M1344.151,407.329c0.794,2.823-146.166,0-146.166,0s40.652-29.59,43.287-37.495
				c2.635-7.904-10.352-55.332-12.045-70.765c-1.355-12.348-4.751-67.597,3.388-76.035c8.508-8.822,39.146-18.067,39.146-18.067
				l44.667,1.658c0,0,7.371,1.542,12.642,3.988c5.27,2.447,35.405,13.181,40.299,28.237c4.894,15.056-30.07,63.465-30.07,63.465
				s-0.067,2.176-0.173,5.74c0,0.002,0,0.002,0,0.002c-0.136,4.754-0.335,11.98-0.518,19.816c-0.233,10.15-0.438,21.325-0.438,29.49
				C1338.17,376.559,1343.358,404.505,1344.151,407.329z"/>
			<path style="fill:#323657;" d="M1344.151,407.329c0,0,19.989,29.358,20.271,49.401c0.282,20.043-7.404,75.62-7.969,86.629
				c-0.564,11.01-10.916,102.76-10.916,102.76s-8,7.434-31.995-1.882c0,0-5.296-87.01-5.861-96.326
				c-0.564-9.315-0.564-52.225-5.928-58.434c-5.364-6.21-37.827-25.689-42.062-29.358c-4.234-3.67-78.004,13.939-85.732,15.943
				c-20.015,5.191-10.893,40.016-6.465,55.629c7.408,26.12,13.884,120.452,13.884,120.452s-14.257,6.075-38.135,0.941
				c0,0-46.89-170.326-48.396-187.264c-1.506-16.938-2.245-44.868,113.307-66.097L1344.151,407.329z"/>
			<path style="fill:#EEA886;" d="M1284.018,107.919c0,0-38.773-8.746-29.917,40.05c8.857,48.797,18.182,52.632,41.574,42.533
				c23.393-10.099,21.298-41.362,22.476-56.692C1319.327,118.48,1296.387,108.452,1284.018,107.919z"/>
			<path style="fill:#EEA886;" d="M1273.758,217.491c0,0,17.172,18.206,44.311,1.66c0,0-6.068-39.453-2.874-58.67
				s-35.409,29.776-35.409,29.776c0.509,0.267,0.844,2.1,0.921,4.71c0.066,2.212-0.051,4.979-0.405,7.819
				C1279.504,209.175,1277.517,215.921,1273.758,217.491z"/>
			<path style="fill:#EEA886;" d="M1304.813,141.498c0.512-4.305,9.021-5.883,9.706,0.571c0.685,6.455-3.867,17.783-7.097,16.668
				C1304.192,157.622,1304.108,147.434,1304.813,141.498z"/>
			<path style="fill:#3A3F47;" d="M1316.261,158.849c0,0-1-15.373-6.616-15.854c-5.615-0.48-6.479,5.711-6.479,5.711l-5.671,1.07
				c0,0,1.791-13.475-3.815-15.83c-5.606-2.354-36.329,7.418-40.83,3.463c-4.501-3.954-2.383-31.289,5.757-35.03
				c8.14-3.741,30.621-12.123,47.092-0.975c0,0,12.84-1.464,14.743,8.898C1322.346,120.665,1319.752,151.145,1316.261,158.849z"/>
			<path style="fill:#A77860;" d="M1280.301,202.786c27.999-8.633,30.107-25.492,30.138-25.754
				c-9.22,15.842-29.732,17.936-29.732,17.936C1280.772,197.179,1280.655,199.946,1280.301,202.786z"/>
			<path style="fill:#EEA886;" d="M1329.529,210.825c0,0-20.503,40.816-53.627,38.181c-33.124-2.635-5.646-43.66-4.141-44.04
				C1273.416,204.549,1305.732,196.497,1329.529,210.825z"/>
			<path style="fill:#FFBF55;" d="M1181.175,405.262c0,0,101.49,12.513,162.977,2.067l-117.488-14.68
				C1226.663,392.649,1225.97,395.645,1181.175,405.262z"/>
			<path style="fill:#EEA886;" d="M1257.081,388.027l-7.56,3.83c0,0,1.722,12.01,5.862,15.648l8.484-2.164
				C1263.868,405.342,1262.101,392.168,1257.081,388.027z"/>
			<path style="fill:#FFBF55;" d="M1374.521,363.435c-1.512,1.75-21.465,9.775-44.004,18.457l-0.002,0.002
				c-30.792,11.862-65.527,23.083-65.527,23.083l-7.907-16.95c0,0,36.375-19.765,60.954-33.626
				c11.61-6.548,20.588-11.777,21.856-12.986c3.952-3.764,4.977-9.8,2.07-20.326c-2.906-10.526-9.599-58.908-10.352-64.554
				c-0.753-5.646,1.883-20.703,15.998-21.456c14.115-0.752,21.299,3.231,21.299,3.231s3.544,1.475,6.179,35.728
				S1378.097,359.295,1374.521,363.435z"/>
			<path style="fill:#B08439;" d="M1339.126,308.056c0,0.002,0,0.002,0,0.002c-0.136,4.754-0.335,11.98-0.518,19.816
				c-13.776-33.768-5.817-60.717-5.682-61.17C1331.436,275.867,1339.019,307.606,1339.126,308.056z"/>
			<path style="fill:#B08439;" d="M1232.77,318.24c0,0,0,0,0,0.002c-1.745,8.496-3.318,15.222-4.295,17.339
				c-4.705-22.773-0.473-51.928-0.473-51.928C1228.646,297.581,1232.77,318.24,1232.77,318.24z"/>
			<path style="fill:#EEA886;" d="M1330.518,381.893l-0.002,0.002c-30.792,11.862-66.647,23.447-66.647,23.447l-6.787-17.314
				c0,0,36.375-19.765,60.954-33.626C1318.035,354.401,1326.978,358.756,1330.518,381.893z"/>
			<polygon style="fill:#5E5853;" points="1254.893,406.346 1110.641,404.224 1183.473,441.204 			"/>
			<polygon style="fill:#91887F;" points="1183.473,441.204 1254.893,413.54 1254.893,406.346 1177.827,434.147 			"/>
			<g>
				<path style="fill:#EEA886;" d="M1251.155,392.12c0,0-9.011-1.403-15.239-2.852c-4.82-1.122-16.804,0.424-19.856,3.517
					c-3.052,3.093-12.759,24.645-14.595,25.96c-1.836,1.315,0.94,4.359,4.165,2.83c0,0,2.96,9.43,10.266,5.9
					c7.306-3.53,12.266-11.238,16.092-12.596c3.826-1.357,26.105-8.207,26.105-8.207S1256.896,389.824,1251.155,392.12z"/>
			</g>
			<g>
				<path style="fill:#EEA886;" d="M1218.26,391.371c0,0-5.788,2.796-7.299,4.042c-1.511,1.247-7.636,5.831-9.12,6.91
					c-1.483,1.079,2.238,4.146,13.188-0.596C1225.979,396.984,1218.26,391.371,1218.26,391.371z"/>
			</g>
			<polygon style="fill:#6E6760;" points="1183.473,441.204 1140.564,324.052 1002.24,326.31 1043.134,434.269 			"/>
			<path style="fill:#807066;" d="M1096.305,375.879c4.222,8.439,2.946,17.628-2.847,20.526
				c-5.794,2.898-13.913-1.593-18.134-10.031s-2.946-17.628,2.848-20.526C1083.966,362.95,1092.084,367.441,1096.305,375.879z"/>
		</g>
		<g>
			<g>
				<path style="fill:#E0E0E0;" d="M1714.127,901.891h-56.151c-1.896,0-3.432-1.537-3.432-3.433v-12.126
					c0-1.895,1.536-3.433,3.432-3.433h56.151c1.896,0,3.433,1.537,3.433,3.433v12.126
					C1717.56,900.354,1716.022,901.891,1714.127,901.891z"/>
			</g>
			<g>
				<path style="fill:#E0E0E0;" d="M1714.127,947.43h-56.151c-1.896,0-3.432-1.537-3.432-3.433v-12.126
					c0-1.896,1.536-3.433,3.432-3.433h56.151c1.896,0,3.433,1.538,3.433,3.433v12.126
					C1717.56,945.893,1716.022,947.43,1714.127,947.43z"/>
			</g>
			<g>
				<path style="fill:#E0E0E0;" d="M1714.127,992.969h-56.151c-1.896,0-3.432-1.537-3.432-3.433V977.41
					c0-1.896,1.536-3.432,3.432-3.432h56.151c1.896,0,3.433,1.536,3.433,3.432v12.126
					C1717.56,991.432,1716.022,992.969,1714.127,992.969z"/>
			</g>
			<g>
				<path style="fill:#E0E0E0;" d="M1714.127,1038.507h-56.151c-1.896,0-3.432-1.536-3.432-3.432v-12.127
					c0-1.896,1.536-3.433,3.432-3.433h56.151c1.896,0,3.433,1.537,3.433,3.433v12.127
					C1717.56,1036.971,1716.022,1038.507,1714.127,1038.507z"/>
			</g>
			<g>
				<path style="fill:#E0E0E0;" d="M1714.127,1084.046h-56.151c-1.896,0-3.432-1.536-3.432-3.433v-12.126
					c0-1.896,1.536-3.433,3.432-3.433h56.151c1.896,0,3.433,1.537,3.433,3.433v12.126
					C1717.56,1082.51,1716.022,1084.046,1714.127,1084.046z"/>
			</g>
			<g>
				<path style="fill:#E0E0E0;" d="M1714.127,1129.584h-56.151c-1.896,0-3.432-1.536-3.432-3.432v-12.126
					c0-1.896,1.536-3.433,3.432-3.433h56.151c1.896,0,3.433,1.536,3.433,3.433v12.126
					C1717.56,1128.048,1716.022,1129.584,1714.127,1129.584z"/>
			</g>
		</g>
		<g>
			<g>
				<path style="fill:#E0E0E0;" d="M1758.077,901.891h-11.065c-1.896,0-3.433-1.537-3.433-3.433v-12.126
					c0-1.895,1.537-3.433,3.433-3.433h11.065c1.895,0,3.433,1.537,3.433,3.433v12.126
					C1761.51,900.354,1759.973,901.891,1758.077,901.891z"/>
			</g>
			<g>
				<path style="fill:#E0E0E0;" d="M1758.077,947.43h-11.065c-1.896,0-3.433-1.537-3.433-3.433v-12.126
					c0-1.896,1.537-3.433,3.433-3.433h11.065c1.895,0,3.433,1.538,3.433,3.433v12.126
					C1761.51,945.893,1759.973,947.43,1758.077,947.43z"/>
			</g>
			<g>
				<path style="fill:#E0E0E0;" d="M1758.077,992.969h-11.065c-1.896,0-3.433-1.537-3.433-3.433V977.41
					c0-1.896,1.537-3.432,3.433-3.432h11.065c1.895,0,3.433,1.536,3.433,3.432v12.126
					C1761.51,991.432,1759.973,992.969,1758.077,992.969z"/>
			</g>
			<g>
				<path style="fill:#E0E0E0;" d="M1758.077,1038.507h-11.065c-1.896,0-3.433-1.536-3.433-3.432v-12.127
					c0-1.896,1.537-3.433,3.433-3.433h11.065c1.895,0,3.433,1.537,3.433,3.433v12.127
					C1761.51,1036.971,1759.973,1038.507,1758.077,1038.507z"/>
			</g>
			<g>
				<path style="fill:#E0E0E0;" d="M1758.077,1084.046h-11.065c-1.896,0-3.433-1.536-3.433-3.433v-12.126
					c0-1.896,1.537-3.433,3.433-3.433h11.065c1.895,0,3.433,1.537,3.433,3.433v12.126
					C1761.51,1082.51,1759.973,1084.046,1758.077,1084.046z"/>
			</g>
			<g>
				<path style="fill:#E0E0E0;" d="M1758.077,1129.584h-11.065c-1.896,0-3.433-1.536-3.433-3.432v-12.126
					c0-1.896,1.537-3.433,3.433-3.433h11.065c1.895,0,3.433,1.536,3.433,3.433v12.126
					C1761.51,1128.048,1759.973,1129.584,1758.077,1129.584z"/>
			</g>
		</g>
		<g>
			<polygon style="fill:#40D5E6;" points="2377.886,323.079 2264.673,209.868 2210.933,263.608 2207.95,260.625 2264.673,203.9 
				2380.869,320.096 			"/>
		</g>
		<g>
			<g>
				<g>
					<g>
						<path style="fill:#666FB3;" d="M1559.077,1362.811c0,0,3.629,14.256,4.122,16.403c0.493,2.146,22.846-3.764,22.846-3.764
							l-0.021-17.436C1586.024,1358.015,1561.696,1360.462,1559.077,1362.811z"/>
					</g>
				</g>
			</g>
			<g>
				<g>
					<g>
						<path style="fill:#2D314F;" d="M1562.759,1377.398c0,0-6.258,9.503-12.813,14.058c-6.553,4.555-31.844,10.446-35.537,14.827
							c-2.665,3.162-6.374,15.135,34.209,9.67c28.832-3.883,43.056-2.901,45.648-7.927c2.592-5.024-8.224-34.134-8.224-34.134
							S1579.877,1377.247,1562.759,1377.398z"/>
					</g>
				</g>
			</g>
			<g>
				<g>
					<g>
						
							<rect x="1520.552" y="940.478" transform="matrix(0.9953 -0.0968 0.0968 0.9953 -131.123 154.4284)" style="fill:#B3DCFF;" width="10.257" height="975.674"/>
					</g>
				</g>
			</g>
			<g>
				<g>
					<g>
						
							<rect x="1685.682" y="924.452" transform="matrix(0.9953 -0.0968 0.0968 0.9953 -128.7945 170.3397)" style="fill:#B3DCFF;" width="10.257" height="975.674"/>
					</g>
				</g>
			</g>
			<g>
				<g>
					<g>
						<g>
							
								<rect x="1479.925" y="948.63" transform="matrix(0.9953 -0.0966 0.0966 0.9953 -84.8494 155.487)" style="fill:#B3DCFF;" width="165.907" height="10.257"/>
						</g>
					</g>
				</g>
				<g>
					<g>
						<g>
							
								<rect x="1487.377" y="1025.416" transform="matrix(0.9953 -0.0966 0.0966 0.9953 -92.2386 156.5743)" style="fill:#B3DCFF;" width="165.906" height="10.257"/>
						</g>
					</g>
				</g>
				<g>
					<g>
						<g>
							
								<rect x="1494.829" y="1102.203" transform="matrix(0.9953 -0.0965 0.0965 0.9953 -99.5239 157.4768)" style="fill:#B3DCFF;" width="165.907" height="10.257"/>
						</g>
					</g>
				</g>
				<g>
					<g>
						<g>
							
								<rect x="1502.281" y="1178.989" transform="matrix(0.9953 -0.0966 0.0966 0.9953 -106.9206 158.5866)" style="fill:#B3DCFF;" width="165.907" height="10.257"/>
						</g>
					</g>
				</g>
				<g>
					<g>
						<g>
							
								<rect x="1509.733" y="1255.775" transform="matrix(0.9953 -0.0965 0.0965 0.9953 -114.2881 159.6472)" style="fill:#B3DCFF;" width="165.907" height="10.257"/>
						</g>
					</g>
				</g>
				<g>
					<g>
						<g>
							
								<rect x="1517.185" y="1332.561" transform="matrix(0.9953 -0.0966 0.0966 0.9953 -121.7922 160.9095)" style="fill:#B3DCFF;" width="165.906" height="10.257"/>
						</g>
					</g>
				</g>
				<g>
					<g>
						<g>
							
								<rect x="1524.637" y="1409.347" transform="matrix(0.9953 -0.0966 0.0966 0.9953 -129.1659 161.9718)" style="fill:#B3DCFF;" width="165.907" height="10.257"/>
						</g>
					</g>
				</g>
				<g>
					<g>
						<g>
							
								<rect x="1532.089" y="1486.133" transform="matrix(0.9953 -0.0965 0.0965 0.9953 -136.4353 162.8983)" style="fill:#B3DCFF;" width="165.907" height="10.257"/>
						</g>
					</g>
				</g>
				<g>
					<g>
						<g>
							
								<rect x="1539.541" y="1562.919" transform="matrix(0.9953 -0.0965 0.0965 0.9953 -143.8019 163.9611)" style="fill:#B3DCFF;" width="165.906" height="10.257"/>
						</g>
					</g>
				</g>
			</g>
			<g>
				<g>
					<g>
						<g>
							
								<rect x="1546.993" y="1639.706" transform="matrix(0.9953 -0.0965 0.0965 0.9953 -151.1805 165.0397)" style="fill:#B3DCFF;" width="165.907" height="10.257"/>
						</g>
					</g>
				</g>
				<g>
					<g>
						<g>
							
								<rect x="1554.445" y="1716.492" transform="matrix(0.9953 -0.0965 0.0965 0.9953 -158.558 166.1169)" style="fill:#B3DCFF;" width="165.906" height="10.257"/>
						</g>
					</g>
				</g>
				<g>
					<g>
						<g>
							
								<rect x="1561.897" y="1793.278" transform="matrix(0.9953 -0.0966 0.0966 0.9953 -165.9523 167.2129)" style="fill:#B3DCFF;" width="165.906" height="10.257"/>
						</g>
					</g>
				</g>
				<g>
					<g>
						<g>
							
								<rect x="1569.348" y="1870.064" transform="matrix(0.9953 -0.0965 0.0965 0.9953 -173.313 168.2717)" style="fill:#B3DCFF;" width="165.907" height="10.257"/>
						</g>
					</g>
				</g>
			</g>
			<g>
				<g>
					<g>
						<path style="fill:#EEA886;" d="M1340.573,807.617c0,0,2.111,2.614,3.592,3.306c0,0,2.791,1.054,4.729,1.923
							c0.613,0.278,1.144,0.533,1.467,0.734c1.356,0.838,4.082,3.084,7.904,4.183c3.816,1.1,21.081,5.031,21.081,5.031l4.017-10.246
							l2.878-8.275c0,0-15.981-20.705-19.421-22.142c-0.338-0.138-0.675-0.263-1.001-0.355c-3.03-0.933-5.678-0.354-7.322-0.664
							c-0.605-0.109-6.695-0.794-8.013,0.477c-1.832,1.762-2.386,3.727-2.067,5.438c0,0-3.434,3.609-3.681,6.954
							c0,0-3.274,3.227-2.397,7.475C1342.339,801.457,1339.384,805.104,1340.573,807.617z"/>
					</g>
				</g>
			</g>
			<g>
				<g>
					<g>
						<path style="fill:#6F5BE0;" d="M1525.636,941.946c-3.988-2.568-9.148-6.044-27.01-14.979
							c-33.25-16.637-74.304-46.795-82.112-51.151c-12.001-6.698-49.918-53.023-49.918-53.023
							c1.956-6.978,19.933-20.982,19.933-20.982s57.482,54.447,70.044,61.148c10.805,5.761,64.162,11.584,78.86,13.095
							c2.387,0.247,3.754,0.38,3.754,0.38C1554.538,897.369,1534.209,947.466,1525.636,941.946z"/>
					</g>
				</g>
			</g>
			<g>
				<g>
					<g>
						<path style="fill:#2D314F;" d="M1531.502,1062.648c0,0-16.267,60.402-20.556,81.991c-3.736,18.812-11.252,68.918-12.32,80.831
							c-1.068,11.912,48.017,127.216,53.123,148.044l44.72-7.18c0,0-47.183-120.008-34.874-146.677
							c18.305-39.66,20.689-38.464,35.109-71.138c14.421-32.673,47.431-33.446,56.295-94.067
							C1652.999,1054.453,1543.504,1043.422,1531.502,1062.648z"/>
					</g>
				</g>
			</g>
			<g>
				<g>
					<g>
						<path style="fill:#EEA886;" d="M1611.022,769.18c0,0-29.694-11.091-43.386,11.513c-13.692,22.604-12.373,67.857,2.595,73.421
							c14.969,5.564,37.453,2.655,45.115-11.489c7.663-14.144,14.582-34.592,14.25-48.257
							C1629.264,780.703,1618.819,773.125,1611.022,769.18z"/>
					</g>
				</g>
			</g>
			<g>
				<g>
					<g>
						<path style="fill:#EEA886;" d="M1575.217,852.725c0,0,1.2,7.784-0.783,11.618c-1.982,3.834,37.349,3.934,37.349,3.934
							s3.194-20.856,9.247-38.476C1627.083,812.179,1575.217,852.725,1575.217,852.725z"/>
					</g>
				</g>
			</g>
			<g>
				<g>
					<g>
						<path style="fill:#323657;" d="M1621.029,829.801c0,0-2.714,4.478-13.796,2.74c-11.081-1.737-24.6-16.481-29.226-18.099
							c-4.627-1.619-4.671-4.337-4.671-4.337l-2.896,4.231l-4.915,0.311c0,0,4.482-13.188-2.278-18.566
							c-6.762-5.379,7.017-42.686,42.555-30.265c0,0,27.295,7.523,26.303,23.047
							C1631.112,804.387,1627.137,822.069,1621.029,829.801z"/>
					</g>
				</g>
			</g>
			<g>
				<g>
					<g>
						<path style="fill:#EEA886;" d="M1574.071,804.46c0.621-2.604,7.242-10.044,9.777-2.077s-3.83,18.682-7.381,17.765
							C1572.917,819.231,1572.495,811.06,1574.071,804.46z"/>
					</g>
				</g>
			</g>
			<g>
				<g>
					<path style="fill:#6F5BE0;" d="M1687.326,966.258c-0.324,3.896-4.772,8.109-7.806,10.191c-1.941,1.334-4.269,2.141-6.771,2.227
						l-1.763,0.061v-0.002l-30.857,1.05c0,0-22.94-74.141,20.088-102.417C1661.55,877.5,1690.313,930.521,1687.326,966.258z"/>
				</g>
			</g>
			<g>
				<g>
					<g>
						<path style="fill:#2D314F;" d="M1594.268,1408.026c-2.596,5.026-16.819,4.045-45.651,7.926
							c-7.877,1.06-14.087,1.467-18.959,1.401l-1.682-17.345c8.435-2.934,18.24-5.959,21.971-8.554
							c6.555-4.555,12.811-14.057,12.811-14.057c17.119-0.15,23.287-3.508,23.287-3.508S1596.858,1403,1594.268,1408.026z"/>
					</g>
				</g>
			</g>
			<g>
				<g>
					<path style="fill:#6F5BE0;" d="M1575.192,862.081c0,0,24.214-5.632,37.861-1.025l2.06,1.908c0,0,4.149,7.953-11.465,8.637
						C1588.036,872.284,1563.49,873.419,1575.192,862.081z"/>
				</g>
			</g>
			<g>
				<g>
					<g>
						<path style="fill:#666FB3;" d="M1669.818,1429.482c0,0,3.63,14.256,4.123,16.402s22.846-3.764,22.846-3.764l-0.021-17.436
							C1696.767,1424.686,1672.438,1427.133,1669.818,1429.482z"/>
					</g>
				</g>
			</g>
			<g>
				<g>
					<g>
						<path style="fill:#2D314F;" d="M1652.999,1054.453c0,0,8.151,33.62,10.564,67.279c2.23,31.104,6.291,65.22,9.517,97.752
							c3.597,36.267,13.859,94.895,14.394,114.295c0.534,19.399,16.865,104.184,16.865,104.184l-41.77,4.8
							c0,0-27.138-149.827-33.547-165.144c-6.409-15.314-38.194-124.504-39.263-136.756
							C1588.692,1128.61,1652.999,1054.453,1652.999,1054.453z"/>
					</g>
				</g>
			</g>
			<g>
				<g>
					<g>
						<path style="fill:#2D314F;" d="M1673.501,1444.07c0,0-6.259,9.502-12.813,14.057c-6.553,4.555-31.844,10.446-35.537,14.828
							c-2.665,3.162-6.374,15.135,34.208,9.67c28.832-3.883,43.057-2.902,45.649-7.928c2.592-5.024-8.223-34.135-8.223-34.135
							S1690.619,1443.918,1673.501,1444.07z"/>
					</g>
				</g>
			</g>
			<g>
				<g>
					<path style="fill:#6F5BE0;" d="M1523.052,1138.093c-3.558-0.509,8.833-106.556,7.886-113.206
						c-0.634-4.438-0.534-38.899-0.274-60.385l-3.877-21.743c-2.158-1.571-5.052-3.385-8.514-5.38
						c-5.385-3.108-12.142-6.66-19.646-10.411c0.872-5.135,1.48-9.18,1.713-11.542c1.874-19.099,14.702-29.219,21.975-33.479
						c2.968-1.737,5.009-2.499,5.009-2.499c2.763-1.172,5.478-2.308,8.11-3.392c17.516-7.207,39.76-13.974,39.76-13.974h35.742
						c0,0,27.209,5.436,43.426,12.073c2.078,0.852,4.027,1.939,5.857,3.214l-4.854,101.898c-0.004,0.02-0.007,0.041-0.011,0.065
						c-0.003,0.034-0.01,0.079-0.017,0.133c-2.188,14.336-4.493,31.247-5.259,43.103c-0.314,4.842,5.221,30.837,8.11,54.698
						l10.108,57.097C1668.295,1134.362,1662.453,1158.021,1523.052,1138.093z"/>
				</g>
			</g>
		</g>
		<g>
			<g style="opacity:0.72;">
				<defs>
					
						<filter id="Adobe_OpacityMaskFilter" filterUnits="userSpaceOnUse" x="1656.244" y="242.745" width="495.393" height="575.366">
						<feFlood  style="flood-color:white;flood-opacity:1" result="back"/>
						<feBlend  in="SourceGraphic" in2="back" mode="normal"/>
					</filter>
				</defs>
				
					<mask maskUnits="userSpaceOnUse" x="1656.244" y="242.745" width="495.393" height="575.366" id="SVGID_00000066484468306995611240000007123479848843666106_">
					<g style="filter:url(#Adobe_OpacityMaskFilter);">
						<defs>
							
								<filter id="Adobe_OpacityMaskFilter_00000005249700158157353790000008158697258644885670_" filterUnits="userSpaceOnUse" x="1656.244" y="242.745" width="495.393" height="575.366">
								<feFlood  style="flood-color:white;flood-opacity:1" result="back"/>
								<feBlend  in="SourceGraphic" in2="back" mode="normal"/>
							</filter>
						</defs>
						
							<mask maskUnits="userSpaceOnUse" x="1656.244" y="242.745" width="495.393" height="575.366" id="SVGID_00000066484468306995611240000007123479848843666106_">
							<g style="filter:url(#Adobe_OpacityMaskFilter_00000005249700158157353790000008158697258644885670_);">
							</g>
						</mask>
						
							<linearGradient id="SVGID_00000096749100422356382320000017570728143184687277_" gradientUnits="userSpaceOnUse" x1="1903.9404" y1="803.236" x2="1903.9404" y2="336.2151">
							<stop  offset="0" style="stop-color:#000000"/>
							<stop  offset="0.2021" style="stop-color:#FFFFFF"/>
							<stop  offset="1" style="stop-color:#FFFFFF"/>
						</linearGradient>
						
							<path style="mask:url(#SVGID_00000066484468306995611240000007123479848843666106_);fill:url(#SVGID_00000096749100422356382320000017570728143184687277_);" d="
							M2116.239,818.11h-424.598c-19.55,0-35.397-15.848-35.397-35.398V278.142c0-19.549,15.848-35.397,35.397-35.397h424.598
							c19.55,0,35.397,15.848,35.397,35.397v504.571C2151.637,802.262,2135.789,818.11,2116.239,818.11z"/>
					</g>
				</mask>
				
					<linearGradient id="SVGID_00000134247097933475206580000010637865722924519826_" gradientUnits="userSpaceOnUse" x1="1903.9404" y1="803.236" x2="1903.9404" y2="336.2151">
					<stop  offset="0" style="stop-color:#40CDE6"/>
					<stop  offset="0.2021" style="stop-color:#40CDE6"/>
					<stop  offset="1" style="stop-color:#5577FF"/>
				</linearGradient>
				<path style="fill:url(#SVGID_00000134247097933475206580000010637865722924519826_);" d="M2116.239,818.11h-424.598
					c-19.55,0-35.397-15.848-35.397-35.398V278.142c0-19.549,15.848-35.397,35.397-35.397h424.598
					c19.55,0,35.397,15.848,35.397,35.397v504.571C2151.637,802.262,2135.789,818.11,2116.239,818.11z"/>
			</g>
			
				<linearGradient id="SVGID_00000048477409315764675980000018278618752383251894_" gradientUnits="userSpaceOnUse" x1="1667.4482" y1="154.6922" x2="2026.6885" y2="154.6922">
				<stop  offset="0" style="stop-color:#409EE6"/>
				<stop  offset="1" style="stop-color:#5577FF"/>
			</linearGradient>
			<path style="opacity:0.72;fill:url(#SVGID_00000048477409315764675980000018278618752383251894_);" d="M2006.665,222.817
				h-319.193c-11.059,0-20.023-8.965-20.023-20.023v-96.203c0-11.059,8.965-20.023,20.023-20.023h319.193
				c11.059,0,20.023,8.964,20.023,20.023v96.203C2026.688,213.852,2017.724,222.817,2006.665,222.817z"/>
			<g>
				<g>
					<g>
						
							<linearGradient id="SVGID_00000158736229841646448750000008892227873927776385_" gradientUnits="userSpaceOnUse" x1="1711.1465" y1="524.0262" x2="1964.4124" y2="524.0262">
							<stop  offset="0" style="stop-color:#D5E4FF"/>
							<stop  offset="1" style="stop-color:#EDFFFE"/>
						</linearGradient>
						<path style="fill:url(#SVGID_00000158736229841646448750000008892227873927776385_);" d="M1956.983,481.393
							c-18.954-52.998-69.604-85.549-122.988-83.944c-12.924,0.388-26.007,2.779-38.846,7.37
							c-38.884,13.908-66.768,44.881-78.223,81.471c-7.938,25.359-7.989,53.417,1.651,80.367c0.957,2.68,1.999,5.317,3.116,7.893
							c5.07,11.673,11.724,22.232,19.625,31.514c33.128,38.948,88.1,55.407,139.097,37.172
							C1946.249,619.685,1980.528,547.229,1956.983,481.393z M1869.743,613.397c-38.234,13.675-79.445,1.334-104.285-27.863
							c-5.92-6.958-10.913-14.876-14.709-23.631c-0.839-1.932-1.621-3.908-2.341-5.918c-7.227-20.205-7.186-41.24-1.234-60.249
							c8.587-27.439,29.489-50.66,58.644-61.084c9.623-3.442,19.434-5.233,29.123-5.529c40.02-1.208,78,23.2,92.213,62.936
							C1944.806,541.42,1919.103,595.742,1869.743,613.397z"/>
					</g>
				</g>
				<g>
					<g>
						<path style="fill:#1A598C;" d="M1747.174,495.735l-30.247-9.446c11.455-36.59,39.339-67.563,78.223-81.471
							c12.839-4.591,25.922-6.982,38.846-7.37l0.945,31.674c-9.689,0.295-19.5,2.086-29.123,5.529
							C1776.663,445.075,1755.761,468.297,1747.174,495.735z"/>
					</g>
				</g>
				<g>
					<g>
						<path style="fill:#2273B5;" d="M1750.749,561.903l-29.056,12.646c-1.117-2.575-2.159-5.213-3.116-7.893
							c-9.64-26.95-9.589-55.007-1.651-80.367l30.247,9.446c-5.951,19.009-5.992,40.044,1.234,60.249
							C1749.128,557.995,1749.91,559.971,1750.749,561.903z"/>
					</g>
				</g>
				<g>
					<g>
						<path style="fill:#3788CC;" d="M1741.318,606.063c-7.901-9.282-14.555-19.841-19.625-31.514l29.056-12.646
							c3.796,8.754,8.789,16.672,14.709,23.631L1741.318,606.063z"/>
					</g>
				</g>
			</g>
			<g>
				<g>
					<g>
						
							<linearGradient id="SVGID_00000181804206299588437350000003063587729265790653_" gradientUnits="userSpaceOnUse" x1="1991.9723" y1="606.062" x2="2096.7339" y2="606.062">
							<stop  offset="0" style="stop-color:#D5E4FF"/>
							<stop  offset="1" style="stop-color:#EDFFFE"/>
						</linearGradient>
						<path style="fill:url(#SVGID_00000181804206299588437350000003063587729265790653_);" d="M2066.749,558.726
							c-21.045-9.958-45.381-4.665-60.526,11.42c-3.667,3.894-6.795,8.42-9.207,13.518c-7.305,15.442-6.402,32.657,0.95,46.71
							c5.096,9.74,13.287,17.961,23.99,23.024c1.064,0.504,2.14,0.971,3.22,1.397c4.897,1.931,9.932,3.074,14.958,3.477
							c21.082,1.703,41.975-9.563,51.558-29.813C2104.06,602.316,2092.894,571.096,2066.749,558.726z M2079.843,622.854
							c-7.184,15.184-22.848,23.628-38.653,22.354c-3.767-0.304-7.543-1.16-11.214-2.61c-0.811-0.32-1.617-0.669-2.416-1.046
							c-8.023-3.796-14.164-9.961-17.983-17.262c-5.514-10.538-6.192-23.444-0.714-35.02c1.808-3.822,4.153-7.215,6.901-10.135
							c11.353-12.06,29.6-16.029,45.38-8.564C2080.745,579.846,2089.116,603.253,2079.843,622.854z"/>
					</g>
				</g>
				<g>
					<g>
						<path style="fill:#1A598C;" d="M2009.576,624.29l-11.61,6.084c-7.353-14.053-8.255-31.268-0.95-46.71
							c2.412-5.098,5.54-9.624,9.207-13.518l9.541,8.989c-2.748,2.92-5.094,6.313-6.901,10.135
							C2003.384,600.846,2004.063,613.752,2009.576,624.29z"/>
					</g>
				</g>
				<g>
					<g>
						<path style="fill:#2273B5;" d="M2029.976,642.598l-4.8,12.197c-1.08-0.426-2.156-0.893-3.22-1.397
							c-10.703-5.063-18.894-13.285-23.99-23.024l11.61-6.084c3.819,7.301,9.96,13.465,17.983,17.262
							C2028.358,641.929,2029.165,642.278,2029.976,642.598z"/>
					</g>
				</g>
			</g>
			<g>
				<g>
					<g>
						
							<linearGradient id="SVGID_00000054228343311916043680000006218533518622437036_" gradientUnits="userSpaceOnUse" x1="1991.9739" y1="446.5913" x2="2096.7332" y2="446.5913">
							<stop  offset="0" style="stop-color:#D5E4FF"/>
							<stop  offset="1" style="stop-color:#EDFFFE"/>
						</linearGradient>
						<path style="fill:url(#SVGID_00000054228343311916043680000006218533518622437036_);" d="M2091.689,468.988
							c9.958-21.045,4.664-45.382-11.42-60.527c-3.894-3.666-8.42-6.794-13.518-9.206c-15.442-7.306-32.657-6.402-46.71,0.95
							c-9.74,5.096-17.962,13.287-23.025,23.99c-0.504,1.064-0.97,2.14-1.396,3.22c-1.932,4.896-3.074,9.932-3.478,14.958
							c-1.702,21.082,9.563,41.975,29.813,51.558C2048.1,506.298,2079.319,495.131,2091.689,468.988z M2027.562,482.081
							c-15.184-7.184-23.628-22.848-22.354-38.653c0.304-3.767,1.16-7.543,2.609-11.214c0.32-0.81,0.669-1.617,1.047-2.415
							c3.796-8.023,9.961-14.165,17.262-17.984c10.537-5.513,23.443-6.192,35.02-0.713c3.822,1.808,7.215,4.153,10.136,6.901
							c12.06,11.351,16.029,29.6,8.563,45.38C2070.57,482.983,2047.163,491.354,2027.562,482.081z"/>
					</g>
				</g>
				<g>
					<g>
						<path style="fill:#4AAFFF;" d="M2026.126,411.814l-6.084-11.61c14.053-7.352,31.268-8.256,46.71-0.95
							c5.098,2.412,9.624,5.54,13.518,9.206l-8.988,9.542c-2.921-2.748-6.313-5.094-10.136-6.901
							C2049.569,405.622,2036.663,406.301,2026.126,411.814z"/>
					</g>
				</g>
				<g>
					<g>
						<path style="fill:#2273B5;" d="M2007.817,432.213l-12.197-4.799c0.427-1.08,0.893-2.156,1.396-3.22
							c5.063-10.703,13.285-18.894,23.025-23.99l6.084,11.61c-7.301,3.819-13.466,9.96-17.262,17.984
							C2008.486,430.597,2008.138,431.403,2007.817,432.213z"/>
					</g>
				</g>
				<g>
					<g>
						<path style="fill:#3788CC;" d="M1992.143,442.372c0.403-5.026,1.546-10.062,3.478-14.958l12.197,4.799
							c-1.449,3.671-2.306,7.448-2.609,11.214L1992.143,442.372z"/>
					</g>
				</g>
			</g>
			<g>
				<polygon style="fill:#E2F3FE;" points="2028.264,692.789 1930.476,692.789 1930.476,690.845 2026.32,690.845 2026.32,653.901 
					2028.264,653.901 				"/>
			</g>
			<g>
				<polygon style="fill:#E2F3FE;" points="1844.112,692.789 1716.927,692.789 1716.927,690.845 1842.169,690.845 1842.169,630.374 
					1844.112,630.374 				"/>
			</g>
			<g>
				
					<linearGradient id="SVGID_00000114765503952523955270000006744244942108073900_" gradientUnits="userSpaceOnUse" x1="1716.9266" y1="676.4478" x2="1804.4404" y2="676.4478">
					<stop  offset="0" style="stop-color:#D5E4FF"/>
					<stop  offset="1" style="stop-color:#EDFFFE"/>
				</linearGradient>
				
					<rect x="1716.927" y="670.617" style="fill:url(#SVGID_00000114765503952523955270000006744244942108073900_);" width="87.514" height="11.661"/>
			</g>
			<g>
				
					<linearGradient id="SVGID_00000173845313933071121200000008777468032886527420_" gradientUnits="userSpaceOnUse" x1="1930.4756" y1="676.4478" x2="1981.9482" y2="676.4478">
					<stop  offset="0" style="stop-color:#D5E4FF"/>
					<stop  offset="1" style="stop-color:#EDFFFE"/>
				</linearGradient>
				
					<rect x="1930.476" y="670.617" style="fill:url(#SVGID_00000173845313933071121200000008777468032886527420_);" width="51.473" height="11.661"/>
			</g>
			<g>
				
					<linearGradient id="SVGID_00000172435749264356459960000006497394770653617848_" gradientUnits="userSpaceOnUse" x1="1906.2158" y1="156.6719" x2="1990.79" y2="156.6719">
					<stop  offset="0" style="stop-color:#D5E4FF"/>
					<stop  offset="1" style="stop-color:#EDFFFE"/>
				</linearGradient>
				<path style="fill:url(#SVGID_00000172435749264356459960000006497394770653617848_);" d="M1948.503,198.959
					c-23.318,0-42.287-18.97-42.287-42.287s18.97-42.287,42.287-42.287c23.317,0,42.287,18.97,42.287,42.287
					S1971.82,198.959,1948.503,198.959z M1948.503,116.385c-22.215,0-40.287,18.073-40.287,40.287
					c0,22.214,18.072,40.287,40.287,40.287s40.287-18.073,40.287-40.287C1988.79,134.458,1970.718,116.385,1948.503,116.385z"/>
			</g>
			
				<linearGradient id="SVGID_00000044879517918393086450000004235382560025308088_" gradientUnits="userSpaceOnUse" x1="1747.5137" y1="128.2598" x2="1872.9375" y2="128.2598">
				<stop  offset="0" style="stop-color:#D5E4FF"/>
				<stop  offset="1" style="stop-color:#EDFFFE"/>
			</linearGradient>
			
				<rect x="1747.514" y="122.747" style="fill:url(#SVGID_00000044879517918393086450000004235382560025308088_);" width="125.424" height="11.025"/>
			
				<linearGradient id="SVGID_00000089555482329622060360000011086056270118298499_" gradientUnits="userSpaceOnUse" x1="1766.0156" y1="156.6719" x2="1872.9375" y2="156.6719">
				<stop  offset="0" style="stop-color:#D5E4FF"/>
				<stop  offset="1" style="stop-color:#EDFFFE"/>
			</linearGradient>
			
				<rect x="1766.016" y="151.159" style="fill:url(#SVGID_00000089555482329622060360000011086056270118298499_);" width="106.922" height="11.025"/>
			
				<linearGradient id="SVGID_00000139978422675872138220000007555035330950262436_" gradientUnits="userSpaceOnUse" x1="1701.0088" y1="185.0835" x2="1872.9375" y2="185.0835">
				<stop  offset="0" style="stop-color:#D5E4FF"/>
				<stop  offset="1" style="stop-color:#EDFFFE"/>
			</linearGradient>
			
				<rect x="1701.009" y="179.571" style="fill:url(#SVGID_00000139978422675872138220000007555035330950262436_);" width="171.929" height="11.025"/>
			<g>
				
					<linearGradient id="SVGID_00000176027497571365713350000006271901875326486668_" gradientUnits="userSpaceOnUse" x1="1697.1016" y1="296.6089" x2="1738.9873" y2="296.6089">
					<stop  offset="0" style="stop-color:#D5E4FF"/>
					<stop  offset="1" style="stop-color:#EDFFFE"/>
				</linearGradient>
				
					<rect x="1697.102" y="292.133" style="fill:url(#SVGID_00000176027497571365713350000006271901875326486668_);" width="41.886" height="8.951"/>
			</g>
			<g>
				
					<linearGradient id="SVGID_00000049915355157865841790000005090149962330435517_" gradientUnits="userSpaceOnUse" x1="1871.709" y1="330.3096" x2="1936.6914" y2="330.3096">
					<stop  offset="0" style="stop-color:#D5E4FF"/>
					<stop  offset="1" style="stop-color:#EDFFFE"/>
				</linearGradient>
				
					<rect x="1871.709" y="325.834" style="fill:url(#SVGID_00000049915355157865841790000005090149962330435517_);" width="64.982" height="8.951"/>
			</g>
			<g>
				
					<linearGradient id="SVGID_00000183959744368718676790000002421954026375933084_" gradientUnits="userSpaceOnUse" x1="1787.6836" y1="330.3096" x2="1827.3535" y2="330.3096">
					<stop  offset="0" style="stop-color:#D5E4FF"/>
					<stop  offset="1" style="stop-color:#EDFFFE"/>
				</linearGradient>
				
					<rect x="1787.684" y="325.834" style="fill:url(#SVGID_00000183959744368718676790000002421954026375933084_);" width="39.67" height="8.951"/>
			</g>
			<g>
				
					<linearGradient id="SVGID_00000062193318884247865310000006094507509626730894_" gradientUnits="userSpaceOnUse" x1="1697.1016" y1="330.3096" x2="1775.6973" y2="330.3096">
					<stop  offset="0" style="stop-color:#D5E4FF"/>
					<stop  offset="1" style="stop-color:#EDFFFE"/>
				</linearGradient>
				
					<rect x="1697.102" y="325.834" style="fill:url(#SVGID_00000062193318884247865310000006094507509626730894_);" width="78.596" height="8.951"/>
			</g>
			<g>
				
					<linearGradient id="SVGID_00000014624720654627541510000004017054030019855001_" gradientUnits="userSpaceOnUse" x1="1751.7352" y1="296.6089" x2="1813.7959" y2="296.6089">
					<stop  offset="0" style="stop-color:#D5E4FF"/>
					<stop  offset="1" style="stop-color:#EDFFFE"/>
				</linearGradient>
				
					<rect x="1751.735" y="292.133" style="fill:url(#SVGID_00000014624720654627541510000004017054030019855001_);" width="62.061" height="8.951"/>
			</g>
			<g>
				
					<linearGradient id="SVGID_00000090997272873515604770000009476315383414208160_" gradientUnits="userSpaceOnUse" x1="1839.7725" y1="330.3096" x2="1856.8174" y2="330.3096">
					<stop  offset="0" style="stop-color:#D5E4FF"/>
					<stop  offset="1" style="stop-color:#EDFFFE"/>
				</linearGradient>
				
					<rect x="1839.772" y="325.834" style="fill:url(#SVGID_00000090997272873515604770000009476315383414208160_);" width="17.045" height="8.951"/>
			</g>
			<g>
				
					<linearGradient id="SVGID_00000166652831685912367140000018166099383232939938_" gradientUnits="userSpaceOnUse" x1="1890.3309" y1="297.1064" x2="1936.6914" y2="297.1064">
					<stop  offset="0" style="stop-color:#D5E4FF"/>
					<stop  offset="1" style="stop-color:#EDFFFE"/>
				</linearGradient>
				
					<rect x="1890.331" y="292.631" style="fill:url(#SVGID_00000166652831685912367140000018166099383232939938_);" width="46.36" height="8.951"/>
			</g>
			<g>
				
					<linearGradient id="SVGID_00000127757406292836182300000003612578893039188395_" gradientUnits="userSpaceOnUse" x1="1953.2275" y1="330.3096" x2="1992.7606" y2="330.3096">
					<stop  offset="0" style="stop-color:#D5E4FF"/>
					<stop  offset="1" style="stop-color:#EDFFFE"/>
				</linearGradient>
				
					<rect x="1953.228" y="325.834" style="fill:url(#SVGID_00000127757406292836182300000003612578893039188395_);" width="39.533" height="8.951"/>
			</g>
			<g>
				
					<linearGradient id="SVGID_00000122692527004519012470000003446190163728656037_" gradientUnits="userSpaceOnUse" x1="1829.0566" y1="297.1064" x2="1878.2012" y2="297.1064">
					<stop  offset="0" style="stop-color:#D5E4FF"/>
					<stop  offset="1" style="stop-color:#EDFFFE"/>
				</linearGradient>
				
					<rect x="1829.057" y="292.631" style="fill:url(#SVGID_00000122692527004519012470000003446190163728656037_);" width="49.145" height="8.951"/>
			</g>
		</g>
		<g>
			<path style="fill:#787878;" d="M1031.713,1723.104c-1.287,9.007-55.397,46.901-66.055,54.473
				c-8.553,6.077-15.987,8.864-28.918,13.726c-0.004,0-0.004,0-0.009,0c-29.376,7.726-213.71,62.73-213.71,62.73
				c-0.484-1.875-0.746-3.5-1.831-5.606c-6.88,2.745-13.962,4.521-18.461,5.928c-6.863,2.145-61.336,3.86-72.488,6.005
				c-11.151,2.145-33.455,5.576-42.463-3.002c-9.008-8.579,5.576-27.022,18.015-31.74c12.438-4.719,57.904-6.006,66.054-6.863
				c8.15-0.857,18.873-3.86,24.02-2.145c1.626,0.54,8.815-1.569,17.891-4.705c-0.223-3.342-0.278-5.447-0.278-5.447l48.399-13.953
				l-8.965-85.698c0,0,21.056-79.351,105.189-18.817c0,0,18.77,5.521,25.204,7.236c0.454,0.12,1.18,0.137,2.153,0.061
				c12.833-0.966,67.983-17.646,87.92-17.646c21.446,0,28.309-1.286,36.029,2.574
				C1017.129,1684.072,1032.999,1714.097,1031.713,1723.104z"/>
			<path style="fill:#787878;" d="M945.524,1857.357c-9.007,8.578-31.31,5.146-42.463,3.002c-11.152-2.145-65.625-3.86-72.488-6.005
				c-6.862-2.145-19.729-5.147-28.737-11.152c-0.725-0.484-2.38-1.205-4.813-2.114c0,0-0.004,0.004-0.009,0.009l-13.622,9.826
				l-189.399-60.289c-11.345-3.109-20.353-7.845-26.349-13.057c-9.865-8.578-64.767-45.466-66.054-54.473
				c-1.287-9.008,14.583-39.032,22.304-42.892c7.721-3.86,14.583-2.574,36.029-2.574c21.446,0,83.64,19.302,90.074,17.586
				c2.925-0.781,8.982-3.864,14.72-7c6.881-3.758,13.302-7.584,13.302-7.584c92.119-41.12,102.37,26.165,102.37,26.165
				l-5.451,83.069c0,0,7.678,3.809,17.663,8.553l45.658,12.901l-5.979,4.315c2.582,0.832,4.413,1.214,5.155,0.965
				c5.147-1.716,15.87,1.287,24.019,2.145c8.15,0.857,53.615,2.145,66.054,6.863
				C939.949,1830.335,954.532,1848.778,945.524,1857.357z"/>
			<path style="fill:#787878;" d="M664.718,1688.225c6.353,0.445,49.275,25.307,59.462,31.251
				c-15.479-8.085-74.182-24.251-74.182-24.251C652.923,1694.443,658.979,1691.36,664.718,1688.225z"/>
			<path style="fill:#787878;" d="M885.463,1695.289c0,0-73.946,17.941-87.479,25.452c0.613-0.446,38.968-29.59,59.106-33.476
				c0,0,19.781,6.243,26.215,7.959c0.454,0.12,1.18,0.137,2.153,0.061C885.463,1695.289,885.463,1695.289,885.463,1695.289z"/>
			<path style="fill:#EEA886;" d="M945.524,1857.357c-9.007,8.578-31.31,5.146-42.463,3.002c-11.152-2.145-65.625-3.86-72.488-6.005
				c-1.973-0.617-4.438-1.304-7.171-2.11c0-0.004-0.005-0.004-0.005-0.004c-6.768-2.003-15.145-4.762-21.562-9.038
				c-0.725-0.484-2.38-1.205-4.813-2.114l34.275-24.735l0.982-0.708c2.582,0.832,4.413,1.214,5.155,0.965
				c5.147-1.716,15.87,1.287,24.019,2.145c8.15,0.857,53.615,2.145,66.054,6.863
				C939.949,1830.335,954.532,1848.778,945.524,1857.357z"/>
			<path style="fill:#C5CDDB;" d="M945.524,1857.357c-9.007,8.578-31.31,5.146-42.463,3.002c-11.152-2.145-65.625-3.86-72.488-6.005
				c-1.973-0.617-4.438-1.304-7.171-2.11c0-0.004-0.005-0.004-0.005-0.004c-0.004-0.005-0.008-0.005-0.008-0.005
				s14.995-14.836,7.909-35.883l0.982-0.708c2.582,0.832,4.413,1.214,5.155,0.965c5.147-1.716,15.87,1.287,24.019,2.145
				c8.15,0.857,53.615,2.145,66.054,6.863C939.949,1830.335,954.532,1848.778,945.524,1857.357z"/>
			<path style="fill:#E55353;" d="M683.521,1707.158c0.099,0.228,0.078,0.395-0.068,0.506
				C682.599,1708.304,682.736,1708.028,683.521,1707.158z"/>
			<path style="fill:#FFCE55;" d="M931.417,1606.867c-0.717-1.449-39.792-62.91-50.373-90.932
				c-10.582-28.025-36.029-40.893-48.039-44.895c-4.285-1.429-11.92-3.916-19.971-6.521c-14.506-4.692-30.355-9.778-30.355-9.778
				h-50.042c0,0-17.337,5.807-35.746,12.258c-0.013,0.009-0.022,0.014-0.022,0.014c-16.964,5.949-34.833,12.447-40.868,15.467
				c-12.58,6.288-33.738,51.184-38.028,56.33c-4.289,5.146-37.273,66.286-42.034,89.786c-3.697,18.25,104.627,71.712,107.582,78.562
				c3.432-3.805,19.208-18.933,19.208-18.933s-5.053-3.179-12.169-7.858c29.017,1.33,99.922-1.17,110.096-0.66
				c2.046,0.104,4.268,0.039,6.554-0.142c-0.009,0.005-0.013,0.009-0.013,0.009c3.148,2.286,23.453,20.224,23.453,20.224
				s50.043-20.776,73.055-44.033C936.388,1622.738,935.015,1614.159,931.417,1606.867z M646.887,1647.533
				c-10.723-12.867-25.482-20.652-21.768-26.369c3.719-5.719,35.171-60.05,35.171-60.05s16.3,35.742,20.876,54.331
				c4.577,18.586,4.217,27.096,2.286,32.882c-1.729,5.186-3.118,8.712-4.675,24.152
				C665.952,1663.721,651.802,1653.432,646.887,1647.533z M868.138,1641.392c-4.207,4.778-20.846,15.351-35.807,24.054
				c-1.137-10.371-2.856-26.691-3.045-32.56c-0.283-8.861,3.431-34.313,8.008-44.033c4.576-9.724,7.721-36.316,7.721-36.316
				s37.887,51.47,43.892,56.905C894.911,1614.871,882.345,1625.253,868.138,1641.392z"/>
			<g>
				<path style="fill:#EEA886;" d="M763.622,1317.203c0,0,39.134,6.166,33.175,67.395c-5.958,61.229-40.498,56.211-42.807,56.148
					c-2.309-0.063-34.674,1.116-37.196-73.641C716.794,1367.105,715.692,1311.826,763.622,1317.203z"/>
			</g>
			<g>
				<path style="fill:#EEA886;" d="M797.402,1367.303c0,0,4.285-4.578,5.858,0.057c1.571,4.634-5.845,25.301-6.112,26.268
					c0,0-0.782,1.797-1.811,0.808C794.309,1393.445,797.402,1367.303,797.402,1367.303z"/>
			</g>
			<g>
				<path style="fill:#EEA886;" d="M717.848,1366.527c0,0-4.196-4.658-5.856-0.057c-1.661,4.604,5.29,25.406,5.602,26.382
					c0,0,0.747,1.813,1.795,0.843C720.435,1392.726,717.848,1366.527,717.848,1366.527z"/>
			</g>
			<g>
				<path style="fill:#434343;" d="M797.384,1376.693l-5.603,7.49c0,0,0.158-16.421-0.741-18.996
					c-0.898-2.574-2.273-10.439-3.025-12.294c-0.752-1.855-33.605-11.063-62.626,2.688c0,0,1.276,11.807-1.505,12.857
					c-2.782,1.051-1.418,19.231-1.418,19.231l-4.606-5.198c0,0-7.051-47.106-5.31-52.016c1.74-4.91,7.289-34.43,66.827-16.906
					c0,0,18.561-3.932,22.286,8.883C805.388,1335.248,797.384,1376.693,797.384,1376.693z"/>
			</g>
			<path style="fill:#474747;" d="M706.044,1768.228c0,0-59.906-35.901-86.07-41.549c-24.726-5.337-33.742-14.583-33.742-14.583
				s39.317,0,65.483,18.586C669.481,1743.304,706.044,1768.228,706.044,1768.228z"/>
			<path style="fill:#474747;" d="M759.262,1793.258c0,0,104.196-54.712,146.737-66.579c24.364-6.797,33.741-14.583,33.741-14.583
				s-64.416,6.291-103.591,29.881C817.479,1753.22,759.262,1793.258,759.262,1793.258z"/>
			<path style="fill:#EEA886;" d="M721.19,1848.427c-6.88,2.745-13.962,4.521-18.461,5.928c-6.863,2.145-61.336,3.86-72.488,6.005
				c-11.151,2.145-33.455,5.576-42.463-3.002c-9.008-8.579,5.576-27.022,18.015-31.74c12.438-4.719,57.904-6.006,66.054-6.863
				c8.15-0.857,18.873-3.86,24.02-2.145c1.626,0.54,8.815-1.569,17.891-4.705C714.031,1817.347,721.19,1848.427,721.19,1848.427z"/>
			<path style="fill:#787878;" d="M759.262,1843.242l102.433-30.312l-20.255-6.187
				C841.439,1806.744,759.58,1836.419,759.262,1843.242z"/>
			<polygon style="fill:#474747;" points="759.262,1843.242 807.197,1828.619 773.96,1847.921 			"/>
			<path style="fill:#525252;" d="M726.337,1720.741c-0.094-0.056-0.861-0.506-2.157-1.266
				C725.038,1719.922,725.763,1720.347,726.337,1720.741z"/>
			<path style="fill:#C5CDDB;" d="M702.729,1854.354c-6.863,2.145-61.336,3.86-72.488,6.005
				c-11.151,2.145-33.455,5.576-42.463-3.002c-9.008-8.579,5.576-27.022,18.015-31.74c12.438-4.719,57.904-6.006,66.054-6.863
				c8.15-0.857,18.873-3.86,24.02-2.145C695.866,1816.609,682.115,1837.627,702.729,1854.354z"/>
			<path style="fill:#D6D6D6;" d="M668.87,1712.096l-15.783-89.788l204.08-4.718l-13.144,88.357c0,0-65.142,23.846-87.251,37.752
				C756.773,1743.699,700.896,1720.741,668.87,1712.096z"/>
			<path style="fill:#EEA886;" d="M787.536,1453.631c-0.017-0.056-5.02-2.466-5.02-2.466c-2.437-5.452-0.627-28.453-0.627-28.453
				s-49.842-12.686-48.419-2.985c1.422,9.7-4.293,32.236-4.293,32.236l-25.57,12.697c0,0,27.243,73.15,58.555,63.714
				c31.311-9.437,43.133-66.353,43.133-66.353L787.536,1453.631z"/>
			<path style="fill:#A77860;" d="M733.997,1430.291c0,0,8.219,10.578,22.159,10.578c9.168,0,15.703-2.526,24.837-11.432
				c0,0-3.914,16.869-24.777,18.441C756.216,1447.879,740.898,1449.591,733.997,1430.291z"/>
		</g>
	</g>
</g>
</svg>
